<svg width="32" height="19" viewBox="0 0 32 19" fill="none" xmlns="http://www.w3.org/2000/svg">
<mask id="mask0_28_61" style="mask-type:luminance" maskUnits="userSpaceOnUse" x="0" y="0" width="32" height="19">
<path d="M31.9581 0.182129H0.146301V18.8174H31.9581V0.182129Z" fill="white"/>
</mask>
<g mask="url(#mask0_28_61)">
<path d="M30.028 0.256041C29.4398 0.205338 28.9991 0.323321 28.6814 0.615315C28.2675 0.995522 28.0674 1.66058 28.0529 2.70584C27.7105 3.09622 27.3692 3.48453 27.0292 3.87079C26.2437 4.7637 25.4317 5.6869 24.6434 6.59774C23.855 7.50857 23.0597 8.44201 22.2906 9.34462C21.9604 9.73184 21.6301 10.1194 21.2992 10.5074C21.2098 10.5054 21.1166 10.4989 21.0189 10.4921C20.7299 10.4541 20.4367 10.469 20.1532 10.5362C19.776 10.6507 19.5518 10.5437 19.2201 10.2772C17.3945 8.81217 15.6978 7.67384 14.0329 6.79749C13.9022 6.73741 13.7871 6.64771 13.6964 6.53536C13.6059 6.42302 13.5423 6.29106 13.5107 6.14985C13.3787 5.64188 13.0541 5.20645 12.6067 4.93735C12.1594 4.66825 11.6251 4.58699 11.1189 4.71107C10.6042 4.83222 10.1538 5.14467 9.8577 5.58599C9.56159 6.02733 9.44155 6.56504 9.52159 7.09168C9.54224 7.23085 9.56722 7.37001 9.59124 7.50251L9.61051 7.6114L2.9249 14.092C2.89092 14.0888 2.85706 14.085 2.82333 14.0815C2.71191 14.0694 2.5966 14.0573 2.481 14.0543C1.37527 14.0222 0.695576 14.5098 0.340606 15.5892C0.0743465 16.3987 0.365812 17.1212 0.608303 17.5944C0.772593 17.9343 1.0228 18.2247 1.33378 18.4361C1.64477 18.6476 2.00554 18.7729 2.37979 18.7991C2.41747 18.8012 2.45506 18.8022 2.49262 18.8023C2.85286 18.7969 3.20612 18.701 3.5205 18.5236C3.83485 18.3461 4.10041 18.0926 4.29328 17.7858C4.86948 16.9129 4.95905 16.0947 4.56531 15.2877L11.0526 9.05867L12.8598 8.496L18.221 12.2033C18.2633 13.0007 18.4603 13.5986 18.8561 14.1346C19.0865 14.4639 19.421 14.7047 19.8048 14.8177C20.1886 14.9306 20.5989 14.909 20.969 14.7564C22.0387 14.3467 22.6328 13.4387 22.6048 12.261L29.1111 4.11546C30.034 4.29697 30.7505 4.21229 31.2412 3.86256C31.6207 3.5926 31.8516 3.17404 31.9275 2.61848C31.971 2.33835 31.9571 2.05215 31.8865 1.77765C31.8159 1.50317 31.6901 1.24622 31.517 1.02274C31.334 0.799061 31.1075 0.615609 30.8514 0.483729C30.5954 0.35185 30.3151 0.274356 30.028 0.256041Z" fill="white"/>
</g>
</svg>
