<svg width="32" height="33" viewBox="0 0 32 33" fill="none" xmlns="http://www.w3.org/2000/svg">
<g clip-path="url(#clip0_28_62)">
<path d="M27.3332 13.8334C27.7012 13.8334 27.9999 13.5348 27.9999 13.1668V5.1668C27.9999 3.32949 26.5052 1.8335 24.6666 1.8335H3.3333C1.49468 1.8335 0 3.32955 0 5.16686V27.8335C0 29.6708 1.49468 31.1668 3.3333 31.1668H24.6665C26.5052 31.1668 27.9998 29.6708 27.9998 27.8335V23.8335C27.9998 23.4655 27.7011 23.1668 27.3331 23.1668C26.9651 23.1668 26.6665 23.4655 26.6665 23.8335V27.8335C26.6665 28.9361 25.7691 29.8334 24.6665 29.8334H3.3333C2.23062 29.8334 1.33331 28.9361 1.33331 27.8335V8.50016H26.6665V13.1668C26.6666 13.5348 26.9652 13.8334 27.3332 13.8334ZM1.33331 7.16685V5.16686C1.33331 4.06417 2.23062 3.16687 3.3333 3.16687H24.6665C25.7692 3.16687 26.6665 4.06417 26.6665 5.16686V7.16685H1.33331Z" fill="white"/>
<path d="M3.33331 5.83337C3.70151 5.83337 4 5.53488 4 5.16668C4 4.79848 3.70151 4.5 3.33331 4.5C2.96511 4.5 2.66663 4.79848 2.66663 5.16668C2.66663 5.53488 2.96511 5.83337 3.33331 5.83337Z" fill="white"/>
<path d="M6 5.83337C6.3682 5.83337 6.66668 5.53488 6.66668 5.16668C6.66668 4.79848 6.3682 4.5 6 4.5C5.6318 4.5 5.33331 4.79848 5.33331 5.16668C5.33331 5.53488 5.6318 5.83337 6 5.83337Z" fill="white"/>
<path d="M8.66662 5.83337C9.03482 5.83337 9.33331 5.53488 9.33331 5.16668C9.33331 4.79848 9.03482 4.5 8.66662 4.5C8.29842 4.5 7.99994 4.79848 7.99994 5.16668C7.99994 5.53488 8.29842 5.83337 8.66662 5.83337Z" fill="white"/>
<path d="M7.3333 15.1665C6.9653 15.1665 6.66661 15.4652 6.66661 15.8332V17.8332H4V15.8332C4 15.4652 3.70131 15.1665 3.33331 15.1665C2.96531 15.1665 2.66663 15.4652 2.66663 15.8332V21.1665C2.66663 21.5345 2.96531 21.8332 3.33331 21.8332C3.70131 21.8332 4 21.5345 4 21.1665V19.1665H6.66667V21.1665C6.66667 21.5345 6.96536 21.8332 7.33336 21.8332C7.70136 21.8332 7.99998 21.5345 7.99998 21.1665V15.8332C7.99998 15.4651 7.70129 15.1665 7.3333 15.1665Z" fill="white"/>
<path d="M12.6666 15.1665H9.99994C9.63194 15.1665 9.33325 15.4652 9.33325 15.8332C9.33325 16.2012 9.63194 16.4999 9.99994 16.4999H10.6666V21.1665C10.6666 21.5345 10.9653 21.8332 11.3333 21.8332C11.7013 21.8332 11.9999 21.5345 11.9999 21.1665V16.4998H12.6666C13.0346 16.4998 13.3333 16.2011 13.3333 15.8331C13.3333 15.4651 13.0346 15.1665 12.6666 15.1665Z" fill="white"/>
<path d="M17.9999 15.1665H15.3332C14.9653 15.1665 14.6666 15.4652 14.6666 15.8332C14.6666 16.2012 14.9653 16.4999 15.3332 16.4999H15.9999V21.1665C15.9999 21.5345 16.2986 21.8332 16.6666 21.8332C17.0346 21.8332 17.3333 21.5345 17.3333 21.1665V16.4999H17.9999C18.3679 16.4999 18.6666 16.2012 18.6666 15.8332C18.6666 15.4652 18.3679 15.1665 17.9999 15.1665Z" fill="white"/>
<path d="M21.9999 15.1665H20.6666C20.2986 15.1665 19.9999 15.4652 19.9999 15.8332V21.1665C19.9999 21.5345 20.2986 21.8332 20.6666 21.8332C21.0346 21.8332 21.3333 21.5345 21.3333 21.1665V19.1665H21.9999C23.1026 19.1665 23.9999 18.2692 23.9999 17.1665C23.9999 16.0638 23.1026 15.1665 21.9999 15.1665ZM21.9999 17.8331H21.3332V16.4998H21.9999C22.3666 16.4998 22.6666 16.7985 22.6666 17.1665C22.6666 17.5345 22.3666 17.8331 21.9999 17.8331Z" fill="white"/>
<path d="M31.4946 15.1865C31.1319 15.0932 30.7746 15.3132 30.6866 15.6718L29.3533 21.0051C29.264 21.3624 29.48 21.7238 29.8386 21.8131C29.8933 21.8264 29.9466 21.8331 29.9999 21.8331C30.2999 21.8331 30.5719 21.6318 30.6466 21.3278L31.9799 15.9945C32.0692 15.6371 31.8532 15.2758 31.4946 15.1865Z" fill="white"/>
<path d="M28.8279 15.1865C28.4639 15.0932 28.1079 15.3132 28.0199 15.6718L26.6866 21.0051C26.5973 21.3624 26.8133 21.7238 27.1719 21.8131C27.2266 21.8264 27.2799 21.8331 27.3332 21.8331C27.6332 21.8331 27.9052 21.6318 27.9799 21.3278L29.3132 15.9945C29.4026 15.6371 29.1866 15.2758 28.8279 15.1865Z" fill="white"/>
<path d="M25.9999 17.8334C26.3681 17.8334 26.6666 17.5349 26.6666 17.1667C26.6666 16.7985 26.3681 16.5 25.9999 16.5C25.6317 16.5 25.3332 16.7985 25.3332 17.1667C25.3332 17.5349 25.6317 17.8334 25.9999 17.8334Z" fill="white"/>
<path d="M25.9999 20.4999C26.3681 20.4999 26.6666 20.2014 26.6666 19.8332C26.6666 19.465 26.3681 19.1665 25.9999 19.1665C25.6317 19.1665 25.3332 19.465 25.3332 19.8332C25.3332 20.2014 25.6317 20.4999 25.9999 20.4999Z" fill="white"/>
</g>
<defs>
<clipPath id="clip0_28_62">
<rect width="32" height="32" fill="white" transform="translate(0 0.5)"/>
</clipPath>
</defs>
</svg>
