<svg width="32" height="33" viewBox="0 0 32 33" fill="none" xmlns="http://www.w3.org/2000/svg">
<path d="M16 0.5C7.177 0.5 0 7.677 0 16.5C0 25.323 7.177 32.5 16 32.5C24.823 32.5 32 25.323 32 16.5C32 7.677 24.823 0.5 16 0.5ZM16 2.027C23.995 2.027 30.473 8.506 30.473 16.5C30.473 24.494 23.994 30.973 16 30.973C8.005 30.973 1.527 24.494 1.527 16.5C1.527 8.506 8.006 2.027 16 2.027ZM11.161 8.323C10.973 8.318 10.786 8.323 10.593 8.328C9.286 8.407 8.5 9.021 8.281 10.292C8.13 11.183 8.156 12.088 8.093 12.984C8.073 13.448 8.026 13.912 7.937 14.364C7.76 15.177 7.412 15.432 6.584 15.473C6.473 15.484 6.364 15.505 6.26 15.53V17.478C7.76 17.551 7.964 18.083 8.083 19.65C8.131 20.223 8.068 20.797 8.104 21.369C8.131 21.912 8.203 22.448 8.312 22.969C8.656 24.401 10.057 24.88 11.745 24.593V22.88C11.473 22.88 11.234 22.885 11.005 22.88C10.426 22.864 10.213 22.719 10.161 22.167C10.082 21.454 10.104 20.73 10.062 20.011C9.973 18.672 9.827 17.36 8.521 16.511C9.193 16.016 9.682 15.427 9.833 14.646C9.942 14.099 10.01 13.547 10.052 12.995C10.094 12.443 10.027 11.875 10.073 11.328C10.15 10.443 10.208 10.079 11.27 10.115C11.431 10.115 11.587 10.094 11.765 10.079V8.334C11.552 8.334 11.354 8.329 11.161 8.323ZM21.287 8.339C20.922 8.328 20.558 8.355 20.198 8.418V10.115C20.527 10.115 20.782 10.115 21.031 10.12C21.47 10.125 21.803 10.297 21.844 10.781C21.885 11.224 21.885 11.672 21.927 12.12C22.016 13.016 22.063 13.916 22.219 14.797C22.355 15.521 22.855 16.062 23.474 16.51C22.386 17.239 22.063 18.286 22.011 19.463C21.979 20.264 21.959 21.078 21.918 21.89C21.881 22.63 21.621 22.869 20.875 22.885C20.667 22.896 20.464 22.912 20.235 22.926V24.666C20.667 24.666 21.068 24.693 21.47 24.666C22.709 24.593 23.465 23.989 23.709 22.781C23.813 22.12 23.876 21.448 23.892 20.776C23.933 20.161 23.928 19.541 23.991 18.932C24.084 17.979 24.523 17.583 25.475 17.521C25.564 17.51 25.652 17.489 25.742 17.464V15.511C25.581 15.49 25.471 15.474 25.351 15.47C24.638 15.438 24.283 15.198 24.1 14.522C23.991 14.089 23.923 13.646 23.903 13.198C23.851 12.375 23.856 11.542 23.804 10.719C23.695 9.131 22.74 8.38 21.287 8.339ZM12.099 15.375C10.667 15.375 10.563 17.484 11.984 17.62H12.063C12.672 17.656 13.194 17.193 13.23 16.583V16.522C13.241 15.902 12.746 15.386 12.126 15.375H12.099ZM15.979 15.375C15.386 15.355 14.886 15.823 14.864 16.418C14.864 16.454 14.864 16.485 14.869 16.522C14.869 17.194 15.328 17.621 16.016 17.621C16.693 17.621 17.12 17.178 17.12 16.485C17.115 15.813 16.661 15.37 15.979 15.376V15.375ZM19.927 15.375C19.303 15.364 18.782 15.86 18.76 16.49C18.76 17.115 19.265 17.621 19.896 17.621H19.907C20.474 17.72 21.042 17.173 21.079 16.517C21.11 15.908 20.558 15.376 19.927 15.376V15.375Z" fill="white"/>
</svg>
