<svg width="32" height="33" viewBox="0 0 32 33" fill="none" xmlns="http://www.w3.org/2000/svg">
<path fill-rule="evenodd" clip-rule="evenodd" d="M27.596 24.329C25.681 23.692 23.622 23.216 21.455 22.908C21.75 21.175 21.907 19.359 21.957 17.5H29.962C29.783 20.021 28.936 22.354 27.596 24.329ZM19.434 30.059C20.1 28.45 20.645 26.711 21.064 24.879C22.862 25.145 24.586 25.538 26.219 26.054C24.415 27.977 22.073 29.392 19.434 30.059ZM16.971 30.451C16.649 30.474 16.328 30.5 16 30.5C15.672 30.5 15.352 30.474 15.029 30.451C14.178 28.679 13.489 26.707 12.979 24.614C13.973 24.527 14.98 24.476 16 24.476C17.02 24.476 18.027 24.527 19.022 24.614C18.511 26.707 17.822 28.679 16.971 30.451ZM5.78101 26.054C7.41401 25.538 9.138 25.145 10.936 24.879C11.355 26.711 11.9 28.45 12.566 30.059C9.92699 29.392 7.58601 27.977 5.78101 26.054ZM4.40401 24.329C3.06401 22.354 2.21699 20.021 2.03799 17.5H10.043C10.093 19.359 10.25 21.175 10.545 22.908C8.378 23.216 6.31901 23.692 4.40401 24.329ZM4.40401 8.67102C6.31901 9.30802 8.378 9.78498 10.545 10.092C10.25 11.825 10.093 13.641 10.043 15.5H2.03799C2.21699 12.979 3.06401 10.646 4.40401 8.67102ZM12.566 2.94098C11.9 4.54998 11.355 6.28897 10.936 8.12097C9.138 7.85597 7.41401 7.46198 5.78101 6.94598C7.58601 5.02298 9.92699 3.60798 12.566 2.94098ZM15.029 2.54901C15.352 2.52701 15.672 2.5 16 2.5C16.328 2.5 16.649 2.52701 16.971 2.54901C17.822 4.32101 18.511 6.29399 19.022 8.38599C18.027 8.47299 17.02 8.52399 16 8.52399C14.98 8.52399 13.973 8.47299 12.979 8.38599C13.489 6.29399 14.178 4.32101 15.029 2.54901ZM19.954 17.5C19.9 19.261 19.74 20.993 19.439 22.656C18.313 22.558 17.168 22.5 16 22.5C14.832 22.5 13.687 22.558 12.562 22.656C12.26 20.993 12.1 19.261 12.047 17.5H19.954ZM12.047 15.5C12.1 13.739 12.26 12.007 12.562 10.344C13.687 10.442 14.832 10.5 16 10.5C17.168 10.5 18.313 10.442 19.438 10.344C19.74 12.007 19.9 13.739 19.954 15.5H12.047ZM26.219 6.94598C24.586 7.46198 22.862 7.85597 21.064 8.12097C20.645 6.28897 20.1 4.54998 19.434 2.94098C22.073 3.60798 24.415 5.02298 26.219 6.94598ZM27.596 8.67102C28.936 10.646 29.783 12.979 29.962 15.5H21.957C21.907 13.641 21.75 11.825 21.455 10.092C23.622 9.78498 25.681 9.30802 27.596 8.67102ZM16 0.5C7.164 0.5 0 7.663 0 16.5C0 25.337 7.164 32.5 16 32.5C24.836 32.5 32 25.337 32 16.5C32 7.663 24.836 0.5 16 0.5Z" fill="white"/>
</svg>
