<svg width="32" height="33" viewBox="0 0 32 33" fill="none" xmlns="http://www.w3.org/2000/svg">
<path d="M9.72131 28.2652L2.66664 29.8332L4.23464 22.7785C3.20202 20.847 2.66334 18.69 2.66664 16.4998C2.66664 9.13584 8.63597 3.1665 16 3.1665C23.364 3.1665 29.3333 9.13584 29.3333 16.4998C29.3333 23.8638 23.364 29.8332 16 29.8332C13.8098 29.8365 11.6528 29.2978 9.72131 28.2652ZM10.108 25.4478L10.9786 25.9145C12.5234 26.74 14.2485 27.1702 16 27.1665C18.1096 27.1665 20.1719 26.5409 21.9261 25.3688C23.6802 24.1968 25.0474 22.5309 25.8547 20.5818C26.662 18.6327 26.8733 16.488 26.4617 14.4189C26.0501 12.3497 25.0342 10.4491 23.5424 8.95736C22.0507 7.4656 20.1501 6.4497 18.0809 6.03813C16.0118 5.62655 13.8671 5.83779 11.918 6.64512C9.96894 7.45246 8.30303 8.81963 7.13096 10.5738C5.9589 12.3279 5.33331 14.3902 5.33331 16.4998C5.33331 18.2785 5.76664 19.9905 6.58664 21.5212L7.05197 22.3918L6.17864 26.3212L10.108 25.4478ZM9.33331 16.4998H12C12 17.5607 12.4214 18.5781 13.1715 19.3283C13.9217 20.0784 14.9391 20.4998 16 20.4998C17.0608 20.4998 18.0783 20.0784 18.8284 19.3283C19.5785 18.5781 20 17.5607 20 16.4998H22.6666C22.6666 18.2679 21.9643 19.9636 20.714 21.2139C19.4638 22.4641 17.7681 23.1665 16 23.1665C14.2319 23.1665 12.5362 22.4641 11.2859 21.2139C10.0357 19.9636 9.33331 18.2679 9.33331 16.4998Z" fill="white"/>
</svg>
