<svg width="31" height="35" viewBox="0 0 31 35" fill="none" xmlns="http://www.w3.org/2000/svg">
<path d="M11.4999 18.1398L13.7857 20.6998L19.4999 14.2998" stroke="white" stroke-width="2" stroke-linecap="round" stroke-linejoin="round"/>
<path d="M1.09998 14.9667C1.09998 9.85051 1.09998 7.29245 1.70401 6.43186C2.30802 5.57126 4.71329 4.74794 9.52383 3.10126L10.4403 2.78755C12.948 1.92918 14.2017 1.5 15.5 1.5C16.7982 1.5 18.052 1.92918 20.5597 2.78755L21.4761 3.10126C26.2867 4.74794 28.692 5.57126 29.296 6.43186C29.9 7.29245 29.9 9.85051 29.9 14.9667C29.9 15.7394 29.9 16.5774 29.9 17.4862C29.9 21.4941 28.5611 24.5854 26.7 26.9466M1.40852 20.7C2.78039 27.5774 8.42223 31.1206 12.1377 32.7437C13.292 33.2478 13.8691 33.5 15.5 33.5C17.1309 33.5 17.708 33.2478 18.8622 32.7437C19.7873 32.3395 20.8318 31.8165 21.9 31.1525" stroke="white" stroke-width="2" stroke-linecap="round"/>
</svg>
