<svg width="33" height="33" viewBox="0 0 33 33" fill="none" xmlns="http://www.w3.org/2000/svg">
<g clip-path="url(#clip0_121_28)">
<path d="M4.5 2.5H2.5V28.5C2.5 29.0304 2.71071 29.5391 3.08579 29.9142C3.46086 30.2893 3.96957 30.5 4.5 30.5H30.5V28.5H4.5V2.5Z" fill="white"/>
<path d="M30.5 9.5H23.5V11.5H27.09L19.5 19.09L15.21 14.79C15.117 14.6963 15.0064 14.6219 14.8846 14.5711C14.7627 14.5203 14.632 14.4942 14.5 14.4942C14.368 14.4942 14.2373 14.5203 14.1154 14.5711C13.9936 14.6219 13.883 14.6963 13.79 14.79L6.5 22.09L7.91 23.5L14.5 16.91L18.79 21.21C18.883 21.3037 18.9936 21.3781 19.1154 21.4289C19.2373 21.4797 19.368 21.5058 19.5 21.5058C19.632 21.5058 19.7627 21.4797 19.8846 21.4289C20.0064 21.3781 20.117 21.3037 20.21 21.21L28.5 12.91V16.5H30.5V9.5Z" fill="white"/>
</g>
<defs>
<clipPath id="clip0_121_28">
<rect width="32" height="32" fill="white" transform="translate(0.5 0.5)"/>
</clipPath>
</defs>
</svg>
