<svg width="33" height="33" viewBox="0 0 33 33" fill="none" xmlns="http://www.w3.org/2000/svg">
<path d="M28.5 16.5H25.8333C24.3606 16.5 23.1667 17.6939 23.1667 19.1667V21.8333C23.1667 23.3061 24.3606 24.5 25.8333 24.5C27.3061 24.5 28.5 23.3061 28.5 21.8333V16.5ZM28.5 16.5C28.5 9.87258 23.1274 4.5 16.5 4.5C9.87258 4.5 4.5 9.87258 4.5 16.5M4.5 16.5V21.8333C4.5 23.3061 5.69391 24.5 7.16667 24.5C8.63943 24.5 9.83333 23.3061 9.83333 21.8333V19.1667C9.83333 17.6939 8.63943 16.5 7.16667 16.5H4.5Z" stroke="white" stroke-width="2" stroke-linecap="round" stroke-linejoin="round"/>
<path d="M28.5 19.1667V24.5001C28.5 27.1667 27.6111 28.5001 25.8334 28.5001C24.0556 28.5001 21.8334 28.5001 19.1667 28.5001" stroke="white" stroke-width="2" stroke-linecap="round" stroke-linejoin="round"/>
</svg>
