<svg width="33" height="33" viewBox="0 0 33 33" fill="none" xmlns="http://www.w3.org/2000/svg">
<g clip-path="url(#clip0_121_20)">
<path d="M26.5 22.5C25.7937 22.5035 25.102 22.7006 24.5 23.07L21.41 19.97C22.129 18.9558 22.5152 17.7432 22.5152 16.5C22.5152 15.2568 22.129 14.0442 21.41 13.03L24.5 9.93C25.102 10.2994 25.7937 10.4966 26.5 10.5C27.2911 10.5 28.0645 10.2654 28.7223 9.82588C29.3801 9.38636 29.8928 8.76164 30.1955 8.03074C30.4983 7.29983 30.5775 6.49556 30.4231 5.71964C30.2688 4.94372 29.8878 4.23098 29.3284 3.67157C28.769 3.11216 28.0563 2.7312 27.2804 2.57686C26.5044 2.42252 25.7002 2.50173 24.9693 2.80448C24.2384 3.10723 23.6137 3.61992 23.1741 4.27772C22.7346 4.93552 22.5 5.70888 22.5 6.5C22.5035 7.20626 22.7006 7.89804 23.07 8.5L19.97 11.59C18.9558 10.871 17.7432 10.4848 16.5 10.4848C15.2568 10.4848 14.0442 10.871 13.03 11.59L9.93 8.5C10.2994 7.89804 10.4966 7.20626 10.5 6.5C10.5 5.70888 10.2654 4.93552 9.82588 4.27772C9.38636 3.61992 8.76164 3.10723 8.03074 2.80448C7.29983 2.50173 6.49556 2.42252 5.71964 2.57686C4.94372 2.7312 4.23098 3.11216 3.67157 3.67157C3.11216 4.23098 2.7312 4.94372 2.57686 5.71964C2.42252 6.49556 2.50173 7.29983 2.80448 8.03074C3.10723 8.76164 3.61992 9.38636 4.27772 9.82588C4.93552 10.2654 5.70888 10.5 6.5 10.5C7.20626 10.4966 7.89804 10.2994 8.5 9.93L11.59 13.03C10.871 14.0442 10.4848 15.2568 10.4848 16.5C10.4848 17.7432 10.871 18.9558 11.59 19.97L8.5 23.07C7.89804 22.7006 7.20626 22.5035 6.5 22.5C5.70888 22.5 4.93552 22.7346 4.27772 23.1741C3.61992 23.6137 3.10723 24.2384 2.80448 24.9693C2.50173 25.7002 2.42252 26.5044 2.57686 27.2804C2.7312 28.0563 3.11216 28.769 3.67157 29.3284C4.23098 29.8878 4.94372 30.2688 5.71964 30.4231C6.49556 30.5775 7.29983 30.4983 8.03074 30.1955C8.76164 29.8928 9.38636 29.3801 9.82588 28.7223C10.2654 28.0645 10.5 27.2911 10.5 26.5C10.4966 25.7937 10.2994 25.102 9.93 24.5L13.03 21.41C14.0442 22.129 15.2568 22.5152 16.5 22.5152C17.7432 22.5152 18.9558 22.129 19.97 21.41L23.07 24.5C22.7006 25.102 22.5035 25.7937 22.5 26.5C22.5 27.2911 22.7346 28.0645 23.1741 28.7223C23.6137 29.3801 24.2384 29.8928 24.9693 30.1955C25.7002 30.4983 26.5044 30.5775 27.2804 30.4231C28.0563 30.2688 28.769 29.8878 29.3284 29.3284C29.8878 28.769 30.2688 28.0563 30.4231 27.2804C30.5775 26.5044 30.4983 25.7002 30.1955 24.9693C29.8928 24.2384 29.3801 23.6137 28.7223 23.1741C28.0645 22.7346 27.2911 22.5 26.5 22.5ZM26.5 4.5C26.8956 4.5 27.2822 4.6173 27.6111 4.83706C27.94 5.05683 28.1964 5.36918 28.3478 5.73464C28.4991 6.10009 28.5387 6.50222 28.4616 6.89018C28.3844 7.27815 28.1939 7.63451 27.9142 7.91422C27.6345 8.19392 27.2781 8.3844 26.8902 8.46157C26.5022 8.53874 26.1001 8.49914 25.7346 8.34776C25.3692 8.19639 25.0568 7.94004 24.8371 7.61114C24.6173 7.28224 24.5 6.89557 24.5 6.5C24.5 5.96957 24.7107 5.46086 25.0858 5.08579C25.4609 4.71072 25.9696 4.5 26.5 4.5ZM4.5 6.5C4.5 6.10444 4.6173 5.71776 4.83706 5.38886C5.05683 5.05996 5.36918 4.80362 5.73464 4.65224C6.10009 4.50087 6.50222 4.46126 6.89018 4.53843C7.27815 4.6156 7.63451 4.80608 7.91422 5.08579C8.19392 5.36549 8.3844 5.72186 8.46157 6.10982C8.53874 6.49778 8.49914 6.89992 8.34776 7.26537C8.19639 7.63082 7.94004 7.94318 7.61114 8.16294C7.28224 8.3827 6.89557 8.5 6.5 8.5C5.96957 8.5 5.46086 8.28929 5.08579 7.91422C4.71072 7.53914 4.5 7.03044 4.5 6.5ZM6.5 28.5C6.10444 28.5 5.71776 28.3827 5.38886 28.1629C5.05996 27.9432 4.80362 27.6308 4.65224 27.2654C4.50087 26.8999 4.46126 26.4978 4.53843 26.1098C4.6156 25.7219 4.80608 25.3655 5.08579 25.0858C5.36549 24.8061 5.72186 24.6156 6.10982 24.5384C6.49778 24.4613 6.89992 24.5009 7.26537 24.6522C7.63082 24.8036 7.94318 25.06 8.16294 25.3889C8.3827 25.7178 8.5 26.1044 8.5 26.5C8.5 27.0304 8.28929 27.5391 7.91422 27.9142C7.53914 28.2893 7.03044 28.5 6.5 28.5ZM16.5 20.5C15.7089 20.5 14.9355 20.2654 14.2777 19.8259C13.6199 19.3864 13.1072 18.7616 12.8045 18.0307C12.5017 17.2998 12.4225 16.4956 12.5769 15.7196C12.7312 14.9437 13.1122 14.231 13.6716 13.6716C14.231 13.1122 14.9437 12.7312 15.7196 12.5769C16.4956 12.4225 17.2998 12.5017 18.0307 12.8045C18.7616 13.1072 19.3864 13.6199 19.8259 14.2777C20.2654 14.9355 20.5 15.7089 20.5 16.5C20.5 17.5609 20.0786 18.5783 19.3284 19.3284C18.5783 20.0786 17.5609 20.5 16.5 20.5ZM26.5 28.5C26.1044 28.5 25.7178 28.3827 25.3889 28.1629C25.06 27.9432 24.8036 27.6308 24.6522 27.2654C24.5009 26.8999 24.4613 26.4978 24.5384 26.1098C24.6156 25.7219 24.8061 25.3655 25.0858 25.0858C25.3655 24.8061 25.7219 24.6156 26.1098 24.5384C26.4978 24.4613 26.8999 24.5009 27.2654 24.6522C27.6308 24.8036 27.9432 25.06 28.1629 25.3889C28.3827 25.7178 28.5 26.1044 28.5 26.5C28.5 27.0304 28.2893 27.5391 27.9142 27.9142C27.5391 28.2893 27.0304 28.5 26.5 28.5Z" fill="white"/>
</g>
<defs>
<clipPath id="clip0_121_20">
<rect width="32" height="32" fill="white" transform="translate(0.5 0.5)"/>
</clipPath>
</defs>
</svg>
